<mxfile host="app.diagrams.net" modified="2024-04-30T06:17:57.089Z" agent="Mozilla/5.0 (Macintosh; Intel Mac OS X 10_15_7) AppleWebKit/537.36 (KHTML, like Gecko) Chrome/124.0.0.0 Safari/537.36" version="24.3.1" etag="McyiAeLHoUo7VcXVgp2J" type="github">
  <diagram name="第 1 页" id="EYNiVx1a9sRc9dpWbzo7">
    <mxGraphModel>
      <root>
        <mxCell id="0" />
        <mxCell id="1" parent="0" />
      </root>
    </mxGraphModel>
  </diagram>
</mxfile>
